<?xml version="1.0" encoding="UTF-8"?>
<!DOCTYPE svg PUBLIC "-//W3C//DTD SVG 1.1//EN" "http://www.w3.org/Graphics/SVG/1.1/DTD/svg11.dtd">
<!-- Creator: CorelDRAW X8 -->
<svg xmlns="http://www.w3.org/2000/svg" xml:space="preserve" width="112.711mm" height="73.888mm" version="1.1" style="shape-rendering:geometricPrecision; text-rendering:geometricPrecision; image-rendering:optimizeQuality; fill-rule:evenodd; clip-rule:evenodd"
viewBox="0 0 14111 9250"
 xmlns:xlink="http://www.w3.org/1999/xlink">
 <defs>
  <style type="text/css">
   <![CDATA[
    .fil0 {fill:#31316E}
    .fil1 {fill:#FF4D5A}
   ]]>
  </style>
 </defs>
 <g id="Layer_x0020_1">
  <metadata id="CorelCorpID_0Corel-Layer"/>
  <g id="_2452950072416">
   <path class="fil0" d="M1164 74c-293,-1 -882,-14 -1141,11 4,6 3,18 5,22 1,2 4,9 6,11 1,2 30,29 31,29 153,114 190,67 488,363 954,947 1026,2622 419,3656 -94,160 -292,452 -413,571 -119,116 -543,403 -546,397 -2,-4 -9,8 -13,12 37,71 -18,15 72,70 30,18 40,18 74,39 351,210 587,551 760,936 254,567 117,1068 294,1630 298,946 1220,1421 2405,1421 363,1 725,21 1086,-5 -30,-87 -37,-50 -116,-99 -143,-89 -236,-164 -343,-283 -527,-590 -580,-1020 -627,-1853 -32,-578 -350,-1388 -808,-1673 -353,-219 -382,-143 -637,-194 221,-46 534,-237 655,-355 576,-560 887,-1297 887,-2182 0,-723 -286,-1326 -749,-1806 -374,-388 -1034,-718 -1789,-718z"/>
   <path class="fil1" d="M12761 1219c-529,-598 -1720,-1312 -2493,-1209 -1,101 -11,49 57,136 175,225 359,561 481,815 170,352 287,699 405,1093 235,785 365,1722 366,2601 2,1367 -443,3208 -1261,4343 -97,135 -125,125 -143,216 170,77 722,-74 900,-130 566,-182 1228,-642 1633,-1049 94,-93 138,-186 233,-280 80,-78 69,-62 124,-144l331 -475c435,-669 717,-1617 717,-2459 -1,-1185 -287,-1957 -879,-2879 -40,-62 -76,-100 -115,-153l-232 -282c-46,-49 -79,-93 -124,-144z"/>
   <path class="fil1" d="M8231 9232c141,0 -23,-137 -57,-183 -147,-199 -313,-496 -416,-726 -155,-344 -291,-702 -407,-1089 -243,-816 -368,-1686 -368,-2624 1,-1379 418,-3241 1256,-4374 57,-77 129,-124 133,-232 -537,-20 -1301,272 -1631,501 -647,449 -527,347 -1139,983 -173,181 -412,569 -540,802 -980,1790 -794,3835 460,5432 626,798 1657,1510 2709,1510z"/>
  </g>
 </g>
</svg>
